<svg t="1597049303202" class="icon" viewBox="0 0 1024 1024" version="1.1" xmlns="http://www.w3.org/2000/svg" p-id="1495" width="128" height="128">
    <path d="M512 512m-512 0a512 512 0 1 0 1024 0 512 512 0 1 0-1024 0Z" fill="#FFFFFF" p-id="1496"></path>
    <path d="M512 0C229.229227 0 0 229.229227 0 512s229.229227 512 512 512 512-229.229227 512-512A512 512 0 0 0 512 0z m-7.574187 526.148267c-8.6016 15.097173-80.247467 182.135467-89.320106 205.428053-15.37024 28.265813-38.488747 51.278507-66.484907 66.174293-31.83616 14.19264-68.34176 12.049067-98.392747-5.782186-27.845973-22.166187-35.351893-39.031467-5.16096-49.46944 30.190933-10.441387 88.695467-85.28896 103.553707-108.417707 14.861653-23.128747 68.676267-100.386133 56.784213-108.578133a289.87392 289.87392 0 0 0-102.929066 11.728213c-16.42496 5.14048-24.405333 13.329067-38.638934-5.300907a163.65568 163.65568 0 0 1-23.934293-78.219946c1.877333-9.3184 3.597653-13.974187 5.164373-13.974187a963.14368 963.14368 0 0 0 185.524907-25.53856 155.3408 155.3408 0 0 0 4.379307-76.772693 308.988587 308.988587 0 0 0-29.566294-78.380374c-4.53632-3.5328 6.25664-16.063147 33.006934-16.063146 40.260267 0.9216 77.312 22.756693 98.39616 57.982293 20.333227 41.280853 0 90.589867 5.632 96.372053 5.632 5.782187 50.52416-16.063147 67.730773-21.52448a198.437547 198.437547 0 0 1 110.2848-12.045653c30.173867 19.012267 46.7968 54.336853 42.5472 90.426027-3.908267 38.87104-38.01088 37.102933-78.21312 30.19776a424.625493 424.625493 0 0 0-142.66368 17.34656c-17.677653 5.782187-29.876907 9.314987-38.324907 24.41216h0.62464z m299.8784 192.116053c-20.80768 65.672533-29.969067 71.2192-49.691306 55.186773-19.718827-16.032427-190.52544-165.563733-195.805867-173.888853a17.629867 17.629867 0 0 1 1.08544-22.196907c7.918933-6.628693 25.46688-4.317867 35.560107-3.857066a421.587627 421.587627 0 0 1 95.962453 27.5968c30.436693 14.9504 133.696853 51.336533 112.889173 117.159253z" fill="#FB7299" p-id="1497"></path>
</svg>