<svg t="1597049883669" class="icon" viewBox="0 0 1024 1024" version="1.1" xmlns="http://www.w3.org/2000/svg" p-id="1834" width="128" height="128">
    <path d="M512 46.545455a464.011636 464.011636 0 0 0-329.122909 136.331636A464.011636 464.011636 0 0 0 46.545455 512a464.011636 464.011636 0 0 0 136.331636 329.122909A464.011636 464.011636 0 0 0 512 977.454545a464.011636 464.011636 0 0 0 329.122909-136.331636A464.011636 464.011636 0 0 0 977.454545 512a464.011636 464.011636 0 0 0-136.331636-329.122909A464.011636 464.011636 0 0 0 512 46.545455z" fill="#6ECFCD" p-id="1835"></path>
    <path d="M475.694545 190.324364c13.637818-6.423273 25.506909-5.864727 35.607273 1.582545 12.567273 6.516364 24.808727 13.730909 36.538182 21.643636 10.007273 6.469818 19.269818 13.963636 27.648 22.43491 7.121455 10.100364 14.010182 14.941091 11.776 25.879272-2.466909 13.824-6.842182 25.972364-8.331636 39.563637-1.489455 13.265455-1.256727 11.962182-1.675637 46.638545-0.465455 40.541091 0 89.367273 0 146.478546 0 53.387636 0.465455 100.212364 1.349818 140.520727 0.884364 40.308364 1.349818 66.56 1.349819 78.848 0.186182 11.124364-0.558545 22.248727-2.234182 33.233454a166.4 166.4 0 0 1-6.702546 25.227637c-7.121455 20.293818-15.732364 36.817455-25.832727 49.617454-8.378182 9.588364-20.386909 14.941091-36.119273 16.011637a48.872727 48.872727 0 0 1-39.656727-14.429091l-19.130182-22.388364a158.161455 158.161455 0 0 0-21.876363-20.014545 2161.943273 2161.943273 0 0 1-50.315637-40.029091c-16.942545-13.870545-30.766545-25.6-41.425454-35.234909-6.562909-6.935273-8.936727-12.427636-7.168-16.430546 1.768727-4.002909 8.610909-5.166545 20.48-3.584 36.864 6.981818 65.396364 12.567273 85.597091 16.802909 11.869091 1.629091 18.106182-2.373818 18.711272-12.008727 0.558545-3.723636 1.163636-24.296727 1.768728-61.626182 0.605091-37.376 0.930909-83.688727 0.930909-138.891636l-0.046546-20.340364c-0.093091-46.405818-0.372364-86.062545-0.884363-118.970182-0.605091-37.655273-1.582545-48.686545-2.141091-55.668363l-0.465455-5.585455c-1.210182-13.591273-4.002909-30.533818-11.636363-38.446545-10.146909-9.029818-10.146909-19.735273 0-32.023273 13.637818-14.894545 24.948364-24.529455 33.838545-28.811636zM311.854545 428.869818l4.049455 0.372364c6.935273 1.256727 11.682909 6.237091 14.289455 14.894545 1.489455 8.098909 0.977455 21.085091-1.44291 39.005091a294.446545 294.446545 0 0 1-16.058181 60.369455c-10.379636 26.298182-22.016 48.034909-34.955637 65.117091s-24.110545 28.299636-33.512727 33.605818a46.312727 46.312727 0 0 1-33.838545 8.331636c-11.822545-1.768727-22.202182-9.309091-31.045819-22.621091a119.435636 119.435636 0 0 1-17.594181-37.841454c-2.885818-11.869091-3.630545-21.178182-2.327273-27.927273 4.747636-17.408 13.358545-29.928727 25.925818-37.562182 15.127273-10.007273 34.676364-24.436364 58.647273-43.287273 23.970909-18.804364 41.890909-34.164364 53.713454-46.08a19.595636 19.595636 0 0 1 18.199273-6.050909z m371.432728-10.333091l7.447272 0.372364c11.682909 1.070545 23.226182 3.630545 34.304 7.586909 16.058182 5.864727 38.167273 15.872 66.373819 30.021818 28.253091 14.149818 48.267636 27.368727 60.183272 39.656727 14.242909 16.523636 19.874909 36.026182 16.942546 58.414546a352.023273 352.023273 0 0 1-8.936727 31.232c-2.885818 9.448727-7.726545 18.199273-14.24291 25.6-19.037091 19.781818-41.890909 18.152727-68.608-4.794182-20.014545-18.990545-38.818909-39.330909-56.180363-60.834909a1187.188364 1187.188364 0 0 1-53.480727-69.632c-10.100364-13.870545-15.872-24.669091-17.361455-32.442182-1.489455-7.726545 1.349818-13.730909 8.471273-18.013091 8.890182-5.864727 19.735273-8.145455 32.535272-6.795636z" fill="#FFFFFF" p-id="1836"></path>
</svg>